<svg width="19" height="19" viewBox="0 0 19 19" fill="none" xmlns="http://www.w3.org/2000/svg">
<g opacity="0.2">
<rect opacity="0.01" width="19" height="19" fill="black"/>
<path fill-rule="evenodd" clip-rule="evenodd" d="M8.93792 16.3954C9.08732 16.5436 9.28957 16.6262 9.5 16.625C9.71043 16.6262 9.91268 16.5436 10.0621 16.3954L16.2133 10.2362C17.8192 8.61357 17.8192 6.0005 16.2133 4.37787C14.5943 2.76337 11.9741 2.76337 10.355 4.37787L9.5 5.23287L8.645 4.37787C7.02593 2.76337 4.40574 2.76337 2.78667 4.37787C1.18081 6.0005 1.18081 8.61357 2.78667 10.2362L8.93792 16.3954ZM3.91083 5.49412C4.38891 5.01487 5.03891 4.74689 5.71583 4.74995C6.39276 4.74689 7.04276 5.01487 7.52083 5.49412L8.93792 6.91912C9.08657 7.06899 9.28891 7.15329 9.5 7.15329C9.71109 7.15329 9.91344 7.06899 10.0621 6.91912L11.4792 5.49412C12.4922 4.53704 14.0761 4.53704 15.0892 5.49412C16.0845 6.49471 16.0845 8.11144 15.0892 9.11204L9.5 14.7091L3.91083 9.11204C2.91548 8.11144 2.91548 6.49471 3.91083 5.49412Z" fill="black"/>
</g>
</svg>
